<svg xmlns="http://www.w3.org/2000/svg" width="600" height="400"><path d="M346,196L387,272L408,195Z" fill="rgb(12,75,208)" stroke="rgb(12,75,208)" stroke-width="1.51"/><path d="M346,196L309,278L387,272Z" fill="rgb(11,74,208)" stroke="rgb(11,74,208)" stroke-width="1.51"/><path d="M387,272L461,290L408,195Z" fill="rgb(7,70,210)" stroke="rgb(7,70,210)" stroke-width="1.51"/><path d="M392,355L461,290L387,272Z" fill="rgb(10,73,209)" stroke="rgb(10,73,209)" stroke-width="1.51"/><path d="M309,278L351,331L387,272Z" fill="rgb(13,76,208)" stroke="rgb(13,76,208)" stroke-width="1.51"/><path d="M408,195L410,124L346,196Z" fill="rgb(16,83,204)" stroke="rgb(16,83,204)" stroke-width="1.51"/><path d="M491,188L410,124L408,195Z" fill="rgb(17,85,202)" stroke="rgb(17,85,202)" stroke-width="1.51"/><path d="M461,290L491,188L408,195Z" fill="rgb(14,78,206)" stroke="rgb(14,78,206)" stroke-width="1.51"/><path d="M351,331L392,355L387,272Z" fill="rgb(14,77,207)" stroke="rgb(14,77,207)" stroke-width="1.51"/><path d="M346,196L249,199L309,278Z" fill="rgb(16,83,203)" stroke="rgb(16,83,203)" stroke-width="1.51"/><path d="M266,133L249,199L346,196Z" fill="rgb(16,92,198)" stroke="rgb(16,92,198)" stroke-width="1.51"/><path d="M410,124L328,98L346,196Z" fill="rgb(16,90,199)" stroke="rgb(16,90,199)" stroke-width="1.51"/><path d="M249,199L243,273L309,278Z" fill="rgb(16,83,203)" stroke="rgb(16,83,203)" stroke-width="1.51"/><path d="M309,278L239,371L351,331Z" fill="rgb(16,86,202)" stroke="rgb(16,86,202)" stroke-width="1.51"/><path d="M360,451L435,415L392,355Z" fill="rgb(16,88,200)" stroke="rgb(16,88,200)" stroke-width="1.51"/><path d="M328,98L266,133L346,196Z" fill="rgb(15,94,196)" stroke="rgb(15,94,196)" stroke-width="1.51"/><path d="M410,124L396,73L328,98Z" fill="rgb(18,83,207)" stroke="rgb(18,83,207)" stroke-width="1.51"/><path d="M502,66L396,73L410,124Z" fill="rgb(19,83,208)" stroke="rgb(19,83,208)" stroke-width="1.51"/><path d="M392,355L470,354L461,290Z" fill="rgb(15,81,205)" stroke="rgb(15,81,205)" stroke-width="1.51"/><path d="M461,290L555,285L491,188Z" fill="rgb(14,79,206)" stroke="rgb(14,79,206)" stroke-width="1.51"/><path d="M491,188L510,143L410,124Z" fill="rgb(16,92,198)" stroke="rgb(16,92,198)" stroke-width="1.51"/><path d="M573,227L510,143L491,188Z" fill="rgb(16,92,198)" stroke="rgb(16,92,198)" stroke-width="1.51"/><path d="M243,273L239,371L309,278Z" fill="rgb(16,87,201)" stroke="rgb(16,87,201)" stroke-width="1.51"/><path d="M249,199L207,277L243,273Z" fill="rgb(16,87,201)" stroke="rgb(16,87,201)" stroke-width="1.51"/><path d="M170,227L207,277L249,199Z" fill="rgb(16,91,198)" stroke="rgb(16,91,198)" stroke-width="1.51"/><path d="M548,350L555,285L461,290Z" fill="rgb(16,85,202)" stroke="rgb(16,85,202)" stroke-width="1.51"/><path d="M183,136L170,227L249,199Z" fill="rgb(12,99,193)" stroke="rgb(12,99,193)" stroke-width="1.51"/><path d="M328,98L274,68L266,133Z" fill="rgb(19,92,201)" stroke="rgb(19,92,201)" stroke-width="1.51"/><path d="M327,25L274,68L328,98Z" fill="rgb(21,84,209)" stroke="rgb(21,84,209)" stroke-width="1.51"/><path d="M555,285L573,227L491,188Z" fill="rgb(16,86,202)" stroke="rgb(16,86,202)" stroke-width="1.51"/><path d="M470,354L548,350L461,290Z" fill="rgb(16,86,201)" stroke="rgb(16,86,201)" stroke-width="1.51"/><path d="M392,355L435,415L470,354Z" fill="rgb(16,87,201)" stroke="rgb(16,87,201)" stroke-width="1.51"/><path d="M360,451L392,355L351,331Z" fill="rgb(16,87,201)" stroke="rgb(16,87,201)" stroke-width="1.51"/><path d="M207,277L239,371L243,273Z" fill="rgb(16,90,199)" stroke="rgb(16,90,199)" stroke-width="1.51"/><path d="M396,73L327,25L328,98Z" fill="rgb(20,79,211)" stroke="rgb(20,79,211)" stroke-width="1.51"/><path d="M510,143L502,66L410,124Z" fill="rgb(18,91,201)" stroke="rgb(18,91,201)" stroke-width="1.51"/><path d="M575,117L502,66L510,143Z" fill="rgb(17,96,198)" stroke="rgb(17,96,198)" stroke-width="1.51"/><path d="M435,415L473,411L470,354Z" fill="rgb(16,92,198)" stroke="rgb(16,92,198)" stroke-width="1.51"/><path d="M183,136L249,199L266,133Z" fill="rgb(10,101,192)" stroke="rgb(10,101,192)" stroke-width="1.51"/><path d="M207,277L178,366L239,371Z" fill="rgb(13,97,195)" stroke="rgb(13,97,195)" stroke-width="1.51"/><path d="M338,-7L327,25L396,73Z" fill="rgb(17,73,219)" stroke="rgb(17,73,219)" stroke-width="1.51"/><path d="M630,254L622,187L573,227Z" fill="rgb(15,94,197)" stroke="rgb(15,94,197)" stroke-width="1.51"/><path d="M473,411L548,350L470,354Z" fill="rgb(15,93,197)" stroke="rgb(15,93,197)" stroke-width="1.51"/><path d="M195,48L266,133L274,68Z" fill="rgb(19,94,201)" stroke="rgb(19,94,201)" stroke-width="1.51"/><path d="M195,48L183,136L266,133Z" fill="rgb(14,101,195)" stroke="rgb(14,101,195)" stroke-width="1.51"/><path d="M244,421L360,451L351,331Z" fill="rgb(14,95,196)" stroke="rgb(14,95,196)" stroke-width="1.51"/><path d="M435,415L472,478L473,411Z" fill="rgb(15,93,197)" stroke="rgb(15,93,197)" stroke-width="1.51"/><path d="M573,227L575,117L510,143Z" fill="rgb(13,99,194)" stroke="rgb(13,99,194)" stroke-width="1.51"/><path d="M239,371L244,421L351,331Z" fill="rgb(14,96,196)" stroke="rgb(14,96,196)" stroke-width="1.51"/><path d="M181,400L244,421L239,371Z" fill="rgb(5,105,190)" stroke="rgb(5,105,190)" stroke-width="1.51"/><path d="M240,-10L195,48L274,68Z" fill="rgb(23,87,211)" stroke="rgb(23,87,211)" stroke-width="1.51"/><path d="M421,-49L338,-7L396,73Z" fill="rgb(8,64,226)" stroke="rgb(8,64,226)" stroke-width="1.51"/><path d="M126,290L178,366L207,277Z" fill="rgb(18,91,201)" stroke="rgb(18,91,201)" stroke-width="1.51"/><path d="M573,227L622,187L575,117Z" fill="rgb(11,100,193)" stroke="rgb(11,100,193)" stroke-width="1.51"/><path d="M630,254L573,227L555,285Z" fill="rgb(16,87,201)" stroke="rgb(16,87,201)" stroke-width="1.51"/><path d="M616,359L630,254L555,285Z" fill="rgb(16,92,198)" stroke="rgb(16,92,198)" stroke-width="1.51"/><path d="M473,411L542,418L548,350Z" fill="rgb(12,98,194)" stroke="rgb(12,98,194)" stroke-width="1.51"/><path d="M472,478L542,418L473,411Z" fill="rgb(13,97,195)" stroke="rgb(13,97,195)" stroke-width="1.51"/><path d="M616,359L555,285L548,350Z" fill="rgb(15,94,196)" stroke="rgb(15,94,196)" stroke-width="1.51"/><path d="M240,-10L274,68L327,25Z" fill="rgb(22,80,215)" stroke="rgb(22,80,215)" stroke-width="1.51"/><path d="M91,203L126,290L170,227Z" fill="rgb(19,83,208)" stroke="rgb(19,83,208)" stroke-width="1.51"/><path d="M170,227L126,290L207,277Z" fill="rgb(17,84,205)" stroke="rgb(17,84,205)" stroke-width="1.51"/><path d="M91,203L170,227L183,136Z" fill="rgb(19,93,200)" stroke="rgb(19,93,200)" stroke-width="1.51"/><path d="M178,366L181,400L239,371Z" fill="rgb(6,104,190)" stroke="rgb(6,104,190)" stroke-width="1.51"/><path d="M114,427L181,400L178,366Z" fill="rgb(13,102,194)" stroke="rgb(13,102,194)" stroke-width="1.51"/><path d="M195,48L138,110L183,136Z" fill="rgb(19,98,200)" stroke="rgb(19,98,200)" stroke-width="1.51"/><path d="M440,489L472,478L435,415Z" fill="rgb(16,92,198)" stroke="rgb(16,92,198)" stroke-width="1.51"/><path d="M363,500L360,451L272,520Z" fill="rgb(15,94,197)" stroke="rgb(15,94,197)" stroke-width="1.51"/><path d="M363,500L440,489L360,451Z" fill="rgb(16,88,200)" stroke="rgb(16,88,200)" stroke-width="1.51"/><path d="M360,451L440,489L435,415Z" fill="rgb(16,88,200)" stroke="rgb(16,88,200)" stroke-width="1.51"/><path d="M575,117L582,51L502,66Z" fill="rgb(20,93,202)" stroke="rgb(20,93,202)" stroke-width="1.51"/><path d="M502,66L421,-49L396,73Z" fill="rgb(16,72,219)" stroke="rgb(16,72,219)" stroke-width="1.51"/><path d="M625,104L582,51L575,117Z" fill="rgb(17,100,197)" stroke="rgb(17,100,197)" stroke-width="1.51"/><path d="M542,418L616,359L548,350Z" fill="rgb(11,101,193)" stroke="rgb(11,101,193)" stroke-width="1.51"/><path d="M621,442L616,359L542,418Z" fill="rgb(2,107,189)" stroke="rgb(2,107,189)" stroke-width="1.51"/><path d="M272,520L360,451L244,421Z" fill="rgb(12,98,194)" stroke="rgb(12,98,194)" stroke-width="1.51"/><path d="M195,48L115,29L138,110Z" fill="rgb(24,89,210)" stroke="rgb(24,89,210)" stroke-width="1.51"/><path d="M338,-7L240,-10L327,25Z" fill="rgb(19,73,222)" stroke="rgb(19,73,222)" stroke-width="1.51"/><path d="M736,149L625,104L622,187Z" fill="rgb(4,105,190)" stroke="rgb(4,105,190)" stroke-width="1.51"/><path d="M622,187L625,104L575,117Z" fill="rgb(2,107,189)" stroke="rgb(2,107,189)" stroke-width="1.51"/><path d="M511,-42L421,-49L502,66Z" fill="rgb(17,70,223)" stroke="rgb(17,70,223)" stroke-width="1.51"/><path d="M338,-7L288,-114L240,-10Z" fill="rgb(20,74,221)" stroke="rgb(20,74,221)" stroke-width="1.51"/><path d="M138,110L91,203L183,136Z" fill="rgb(18,98,198)" stroke="rgb(18,98,198)" stroke-width="1.51"/><path d="M126,290L108,342L178,366Z" fill="rgb(20,90,203)" stroke="rgb(20,90,203)" stroke-width="1.51"/><path d="M24,301L108,342L126,290Z" fill="rgb(20,80,212)" stroke="rgb(20,80,212)" stroke-width="1.51"/><path d="M586,-53L511,-42L582,51Z" fill="rgb(23,79,218)" stroke="rgb(23,79,218)" stroke-width="1.51"/><path d="M582,51L511,-42L502,66Z" fill="rgb(22,82,215)" stroke="rgb(22,82,215)" stroke-width="1.51"/><path d="M625,104L613,29L582,51Z" fill="rgb(21,95,203)" stroke="rgb(21,95,203)" stroke-width="1.51"/><path d="M363,500L560,502L440,489Z" fill="rgb(16,92,197)" stroke="rgb(16,92,197)" stroke-width="1.51"/><path d="M178,505L272,520L244,421Z" fill="rgb(6,104,190)" stroke="rgb(6,104,190)" stroke-width="1.51"/><path d="M178,505L244,421L181,400Z" fill="rgb(1,107,188)" stroke="rgb(1,107,188)" stroke-width="1.51"/><path d="M490,-116L391,-84L421,-49Z" fill="rgb(10,65,226)" stroke="rgb(10,65,226)" stroke-width="1.51"/><path d="M421,-49L391,-84L338,-7Z" fill="rgb(6,62,227)" stroke="rgb(6,62,227)" stroke-width="1.51"/><path d="M630,254L724,205L622,187Z" fill="rgb(15,95,196)" stroke="rgb(15,95,196)" stroke-width="1.51"/><path d="M724,28L657,-32L613,29Z" fill="rgb(25,85,214)" stroke="rgb(25,85,214)" stroke-width="1.51"/><path d="M616,359L688,282L630,254Z" fill="rgb(16,92,198)" stroke="rgb(16,92,198)" stroke-width="1.51"/><path d="M240,-10L200,-39L195,48Z" fill="rgb(25,83,216)" stroke="rgb(25,83,216)" stroke-width="1.51"/><path d="M138,110L55,139L91,203Z" fill="rgb(22,93,204)" stroke="rgb(22,93,204)" stroke-width="1.51"/><path d="M288,-114L200,-39L240,-10Z" fill="rgb(23,79,218)" stroke="rgb(23,79,218)" stroke-width="1.51"/><path d="M616,359L727,328L688,282Z" fill="rgb(14,96,196)" stroke="rgb(14,96,196)" stroke-width="1.51"/><path d="M613,474L621,442L542,418Z" fill="rgb(3,106,189)" stroke="rgb(3,106,189)" stroke-width="1.51"/><path d="M560,502L542,418L472,478Z" fill="rgb(11,100,193)" stroke="rgb(11,100,193)" stroke-width="1.51"/><path d="M391,-84L362,-99L338,-7Z" fill="rgb(10,65,226)" stroke="rgb(10,65,226)" stroke-width="1.51"/><path d="M490,-116L362,-99L391,-84Z" fill="rgb(5,62,227)" stroke="rgb(5,62,227)" stroke-width="1.51"/><path d="M440,489L560,502L472,478Z" fill="rgb(14,96,195)" stroke="rgb(14,96,195)" stroke-width="1.51"/><path d="M272,520L560,502L363,500Z" fill="rgb(17,87,201)" stroke="rgb(17,87,201)" stroke-width="1.51"/><path d="M200,-39L115,29L195,48Z" fill="rgb(25,82,217)" stroke="rgb(25,82,217)" stroke-width="1.51"/><path d="M108,342L114,427L178,366Z" fill="rgb(18,97,199)" stroke="rgb(18,97,199)" stroke-width="1.51"/><path d="M33,371L114,427L108,342Z" fill="rgb(22,91,206)" stroke="rgb(22,91,206)" stroke-width="1.51"/><path d="M91,203L34,218L126,290Z" fill="rgb(19,77,213)" stroke="rgb(19,77,213)" stroke-width="1.51"/><path d="M115,29L55,139L138,110Z" fill="rgb(24,89,210)" stroke="rgb(24,89,210)" stroke-width="1.51"/><path d="M716,407L727,328L616,359Z" fill="rgb(9,102,192)" stroke="rgb(9,102,192)" stroke-width="1.51"/><path d="M560,502L613,474L542,418Z" fill="rgb(5,104,190)" stroke="rgb(5,104,190)" stroke-width="1.51"/><path d="M114,427L178,505L181,400Z" fill="rgb(12,103,194)" stroke="rgb(12,103,194)" stroke-width="1.51"/><path d="M55,139L34,218L91,203Z" fill="rgb(22,83,212)" stroke="rgb(22,83,212)" stroke-width="1.51"/><path d="M688,282L724,205L630,254Z" fill="rgb(16,90,199)" stroke="rgb(16,90,199)" stroke-width="1.51"/><path d="M727,328L724,205L688,282Z" fill="rgb(16,88,200)" stroke="rgb(16,88,200)" stroke-width="1.51"/><path d="M511,-42L490,-116L421,-49Z" fill="rgb(16,70,224)" stroke="rgb(16,70,224)" stroke-width="1.51"/><path d="M613,29L586,-53L582,51Z" fill="rgb(25,85,214)" stroke="rgb(25,85,214)" stroke-width="1.51"/><path d="M657,-32L586,-53L613,29Z" fill="rgb(25,84,216)" stroke="rgb(25,84,216)" stroke-width="1.51"/><path d="M362,-99L288,-114L338,-7Z" fill="rgb(16,69,224)" stroke="rgb(16,69,224)" stroke-width="1.51"/><path d="M57,-27L49,28L115,29Z" fill="rgb(20,69,231)" stroke="rgb(20,69,231)" stroke-width="1.51"/><path d="M34,218L24,301L126,290Z" fill="rgb(14,70,219)" stroke="rgb(14,70,219)" stroke-width="1.51"/><path d="M565,-98L490,-116L511,-42Z" fill="rgb(21,75,221)" stroke="rgb(21,75,221)" stroke-width="1.51"/><path d="M362,-99L490,-116L288,-114Z" fill="rgb(7,63,227)" stroke="rgb(7,63,227)" stroke-width="1.51"/><path d="M716,407L616,359L621,442Z" fill="rgb(1,107,188)" stroke="rgb(1,107,188)" stroke-width="1.51"/><path d="M724,205L736,149L622,187Z" fill="rgb(11,100,193)" stroke="rgb(11,100,193)" stroke-width="1.51"/><path d="M727,328L736,149L724,205Z" fill="rgb(15,93,197)" stroke="rgb(15,93,197)" stroke-width="1.51"/><path d="M24,301L33,371L108,342Z" fill="rgb(22,81,214)" stroke="rgb(22,81,214)" stroke-width="1.51"/><path d="M114,427L94,508L178,505Z" fill="rgb(18,99,198)" stroke="rgb(18,99,198)" stroke-width="1.51"/><path d="M586,-53L565,-98L511,-42Z" fill="rgb(23,79,219)" stroke="rgb(23,79,219)" stroke-width="1.51"/><path d="M659,-100L565,-98L586,-53Z" fill="rgb(25,84,216)" stroke="rgb(25,84,216)" stroke-width="1.51"/><path d="M724,28L613,29L625,104Z" fill="rgb(22,94,204)" stroke="rgb(22,94,204)" stroke-width="1.51"/><path d="M692,492L716,407L621,442Z" fill="rgb(1,107,188)" stroke="rgb(1,107,188)" stroke-width="1.51"/><path d="M115,29L49,28L55,139Z" fill="rgb(25,80,219)" stroke="rgb(25,80,219)" stroke-width="1.51"/><path d="M-64,213L-32,285L34,218Z" fill="rgb(12,66,226)" stroke="rgb(12,66,226)" stroke-width="1.51"/><path d="M34,218L-32,285L24,301Z" fill="rgb(5,61,227)" stroke="rgb(5,61,227)" stroke-width="1.51"/><path d="M113,-53L115,29L200,-39Z" fill="rgb(24,76,224)" stroke="rgb(24,76,224)" stroke-width="1.51"/><path d="M164,-111L113,-53L200,-39Z" fill="rgb(25,79,221)" stroke="rgb(25,79,221)" stroke-width="1.51"/><path d="M17,437L94,508L114,427Z" fill="rgb(23,93,205)" stroke="rgb(23,93,205)" stroke-width="1.51"/><path d="M178,505L94,508L272,520Z" fill="rgb(6,105,191)" stroke="rgb(6,105,191)" stroke-width="1.51"/><path d="M736,149L724,28L625,104Z" fill="rgb(15,101,196)" stroke="rgb(15,101,196)" stroke-width="1.51"/><path d="M288,-114L164,-111L200,-39Z" fill="rgb(24,82,217)" stroke="rgb(24,82,217)" stroke-width="1.51"/><path d="M18,-76L57,-27L113,-53Z" fill="rgb(17,65,235)" stroke="rgb(17,65,235)" stroke-width="1.51"/><path d="M113,-53L57,-27L115,29Z" fill="rgb(21,70,230)" stroke="rgb(21,70,230)" stroke-width="1.51"/><path d="M613,474L692,492L621,442Z" fill="rgb(1,107,188)" stroke="rgb(1,107,188)" stroke-width="1.51"/><path d="M560,502L692,492L613,474Z" fill="rgb(1,107,188)" stroke="rgb(1,107,188)" stroke-width="1.51"/><path d="M33,371L17,437L114,427Z" fill="rgb(24,91,208)" stroke="rgb(24,91,208)" stroke-width="1.51"/><path d="M24,301L-59,348L33,371Z" fill="rgb(20,74,221)" stroke="rgb(20,74,221)" stroke-width="1.51"/><path d="M-64,213L34,218L-58,130Z" fill="rgb(21,75,221)" stroke="rgb(21,75,221)" stroke-width="1.51"/><path d="M34,218L55,139L-58,130Z" fill="rgb(23,81,217)" stroke="rgb(23,81,217)" stroke-width="1.51"/><path d="M-34,449L17,437L33,371Z" fill="rgb(25,85,215)" stroke="rgb(25,85,215)" stroke-width="1.51"/><path d="M490,-116L127,-120L288,-114Z" fill="rgb(19,72,222)" stroke="rgb(19,72,222)" stroke-width="1.51"/><path d="M288,-114L127,-120L164,-111Z" fill="rgb(25,83,217)" stroke="rgb(25,83,217)" stroke-width="1.51"/><path d="M164,-111L127,-120L113,-53Z" fill="rgb(23,75,225)" stroke="rgb(23,75,225)" stroke-width="1.51"/><path d="M722,-37L659,-100L657,-32Z" fill="rgb(25,84,216)" stroke="rgb(25,84,216)" stroke-width="1.51"/><path d="M657,-32L659,-100L586,-53Z" fill="rgb(25,84,216)" stroke="rgb(25,84,216)" stroke-width="1.51"/><path d="M565,-98L711,-124L490,-116Z" fill="rgb(25,83,216)" stroke="rgb(25,83,216)" stroke-width="1.51"/><path d="M724,28L722,-37L657,-32Z" fill="rgb(25,84,216)" stroke="rgb(25,84,216)" stroke-width="1.51"/><path d="M736,149L722,-37L724,28Z" fill="rgb(23,92,206)" stroke="rgb(23,92,206)" stroke-width="1.51"/><path d="M-58,130L55,139L-55,52Z" fill="rgb(24,79,221)" stroke="rgb(24,79,221)" stroke-width="1.51"/><path d="M-32,285L-59,348L24,301Z" fill="rgb(15,69,224)" stroke="rgb(15,69,224)" stroke-width="1.51"/><path d="M-55,52L55,139L49,28Z" fill="rgb(23,74,226)" stroke="rgb(23,74,226)" stroke-width="1.51"/><path d="M-106,367L-59,348L-130,301Z" fill="rgb(20,74,222)" stroke="rgb(20,74,222)" stroke-width="1.51"/><path d="M17,437L17,519L94,508Z" fill="rgb(24,89,210)" stroke="rgb(24,89,210)" stroke-width="1.51"/><path d="M94,508L17,519L272,520Z" fill="rgb(18,99,198)" stroke="rgb(18,99,198)" stroke-width="1.51"/><path d="M-34,449L17,519L17,437Z" fill="rgb(25,84,216)" stroke="rgb(25,84,216)" stroke-width="1.51"/><path d="M-130,301L-59,348L-32,285Z" fill="rgb(15,69,224)" stroke="rgb(15,69,224)" stroke-width="1.51"/><path d="M-58,130L-86,186L-64,213Z" fill="rgb(22,77,220)" stroke="rgb(22,77,220)" stroke-width="1.51"/><path d="M-58,130L-126,128L-86,186Z" fill="rgb(24,82,217)" stroke="rgb(24,82,217)" stroke-width="1.51"/><path d="M-18,-39L-55,52L49,28Z" fill="rgb(7,58,241)" stroke="rgb(7,58,241)" stroke-width="1.51"/><path d="M-18,-39L49,28L57,-27Z" fill="rgb(10,59,240)" stroke="rgb(10,59,240)" stroke-width="1.51"/><path d="M-59,348L-34,449L33,371Z" fill="rgb(24,82,217)" stroke="rgb(24,82,217)" stroke-width="1.51"/><path d="M127,-120L18,-76L113,-53Z" fill="rgb(20,68,232)" stroke="rgb(20,68,232)" stroke-width="1.51"/><path d="M18,-76L-18,-39L57,-27Z" fill="rgb(7,58,241)" stroke="rgb(7,58,241)" stroke-width="1.51"/><path d="M722,-37L711,-124L659,-100Z" fill="rgb(25,84,216)" stroke="rgb(25,84,216)" stroke-width="1.51"/><path d="M659,-100L711,-124L565,-98Z" fill="rgb(25,84,216)" stroke="rgb(25,84,216)" stroke-width="1.51"/><path d="M490,-116L711,-124L127,-120Z" fill="rgb(12,66,226)" stroke="rgb(12,66,226)" stroke-width="1.51"/><path d="M-89,440L-34,449L-59,348Z" fill="rgb(25,84,216)" stroke="rgb(25,84,216)" stroke-width="1.51"/><path d="M-89,440L-49,481L-34,449Z" fill="rgb(25,84,216)" stroke="rgb(25,84,216)" stroke-width="1.51"/><path d="M-34,449L-49,481L17,519Z" fill="rgb(25,84,216)" stroke="rgb(25,84,216)" stroke-width="1.51"/><path d="M-130,301L-32,285L-64,213Z" fill="rgb(3,60,228)" stroke="rgb(3,60,228)" stroke-width="1.51"/><path d="M-106,367L-89,440L-59,348Z" fill="rgb(24,82,217)" stroke="rgb(24,82,217)" stroke-width="1.51"/><path d="M-106,367L-95,510L-89,440Z" fill="rgb(25,84,216)" stroke="rgb(25,84,216)" stroke-width="1.51"/><path d="M-86,186L-130,301L-64,213Z" fill="rgb(13,66,225)" stroke="rgb(13,66,225)" stroke-width="1.51"/><path d="M-126,128L-130,301L-86,186Z" fill="rgb(18,72,223)" stroke="rgb(18,72,223)" stroke-width="1.51"/><path d="M-118,60L-126,128L-58,130Z" fill="rgb(25,79,221)" stroke="rgb(25,79,221)" stroke-width="1.51"/><path d="M-118,60L-58,130L-55,52Z" fill="rgb(22,73,227)" stroke="rgb(22,73,227)" stroke-width="1.51"/><path d="M-95,-44L-55,52L-18,-39Z" fill="rgb(1,54,244)" stroke="rgb(1,54,244)" stroke-width="1.51"/><path d="M-95,-44L-118,60L-55,52Z" fill="rgb(11,60,239)" stroke="rgb(11,60,239)" stroke-width="1.51"/><path d="M-59,-119L-95,-44L-18,-39Z" fill="rgb(1,54,244)" stroke="rgb(1,54,244)" stroke-width="1.51"/><path d="M-59,-119L-18,-39L18,-76Z" fill="rgb(1,54,244)" stroke="rgb(1,54,244)" stroke-width="1.51"/><path d="M-49,481L-95,510L17,519Z" fill="rgb(25,84,216)" stroke="rgb(25,84,216)" stroke-width="1.51"/><path d="M-89,440L-95,510L-49,481Z" fill="rgb(25,84,216)" stroke="rgb(25,84,216)" stroke-width="1.51"/><path d="M-130,301L-95,510L-106,367Z" fill="rgb(25,83,216)" stroke="rgb(25,83,216)" stroke-width="1.51"/><path d="M127,-120L-59,-119L18,-76Z" fill="rgb(9,59,240)" stroke="rgb(9,59,240)" stroke-width="1.51"/><path d="M711,-124L-59,-119L127,-120Z" fill="rgb(22,77,220)" stroke="rgb(22,77,220)" stroke-width="1.51"/><path d="M-59,-119L-140,-100L-95,-44Z" fill="rgb(1,54,244)" stroke="rgb(1,54,244)" stroke-width="1.51"/><path d="M-95,-44L-140,-100L-118,60Z" fill="rgb(1,54,244)" stroke="rgb(1,54,244)" stroke-width="1.51"/><path d="M-118,60L-140,-100L-126,128Z" fill="rgb(13,62,238)" stroke="rgb(13,62,238)" stroke-width="1.51"/><path d="M-126,128L-140,-100L-130,301Z" fill="rgb(24,79,221)" stroke="rgb(24,79,221)" stroke-width="1.51"/></svg>