<svg xmlns="http://www.w3.org/2000/svg" width="600" height="400"><path d="M253,206L278,254L347,222Z" fill="rgb(37,66,170)" stroke="rgb(37,66,170)" stroke-width="1.51"/><path d="M347,222L336,145L253,206Z" fill="rgb(37,66,173)" stroke="rgb(37,66,173)" stroke-width="1.51"/><path d="M278,254L316,302L347,222Z" fill="rgb(36,64,165)" stroke="rgb(36,64,165)" stroke-width="1.51"/><path d="M336,145L244,121L253,206Z" fill="rgb(38,69,179)" stroke="rgb(38,69,179)" stroke-width="1.51"/><path d="M253,206L199,293L278,254Z" fill="rgb(37,66,171)" stroke="rgb(37,66,171)" stroke-width="1.51"/><path d="M278,254L238,330L316,302Z" fill="rgb(35,63,163)" stroke="rgb(35,63,163)" stroke-width="1.51"/><path d="M244,121L177,215L253,206Z" fill="rgb(39,69,181)" stroke="rgb(39,69,181)" stroke-width="1.51"/><path d="M439,196L387,118L336,145Z" fill="rgb(37,66,171)" stroke="rgb(37,66,171)" stroke-width="1.51"/><path d="M336,145L357,76L244,121Z" fill="rgb(39,70,182)" stroke="rgb(39,70,182)" stroke-width="1.51"/><path d="M177,215L199,293L253,206Z" fill="rgb(37,68,175)" stroke="rgb(37,68,175)" stroke-width="1.51"/><path d="M199,293L238,330L278,254Z" fill="rgb(36,64,167)" stroke="rgb(36,64,167)" stroke-width="1.51"/><path d="M316,302L433,274L347,222Z" fill="rgb(35,62,160)" stroke="rgb(35,62,160)" stroke-width="1.51"/><path d="M347,222L439,196L336,145Z" fill="rgb(36,65,168)" stroke="rgb(36,65,168)" stroke-width="1.51"/><path d="M238,330L341,341L316,302Z" fill="rgb(35,62,158)" stroke="rgb(35,62,158)" stroke-width="1.51"/><path d="M433,274L439,196L347,222Z" fill="rgb(35,62,161)" stroke="rgb(35,62,161)" stroke-width="1.51"/><path d="M341,341L433,274L316,302Z" fill="rgb(34,60,155)" stroke="rgb(34,60,155)" stroke-width="1.51"/><path d="M387,118L357,76L336,145Z" fill="rgb(38,69,178)" stroke="rgb(38,69,178)" stroke-width="1.51"/><path d="M439,196L478,116L387,118Z" fill="rgb(36,65,169)" stroke="rgb(36,65,169)" stroke-width="1.51"/><path d="M387,118L390,73L357,76Z" fill="rgb(38,69,180)" stroke="rgb(38,69,180)" stroke-width="1.51"/><path d="M433,274L459,205L439,196Z" fill="rgb(35,62,159)" stroke="rgb(35,62,159)" stroke-width="1.51"/><path d="M478,116L390,73L387,118Z" fill="rgb(37,67,175)" stroke="rgb(37,67,175)" stroke-width="1.51"/><path d="M244,121L161,110L177,215Z" fill="rgb(39,72,187)" stroke="rgb(39,72,187)" stroke-width="1.51"/><path d="M194,66L161,110L244,121Z" fill="rgb(40,73,193)" stroke="rgb(40,73,193)" stroke-width="1.51"/><path d="M341,341L398,362L433,274Z" fill="rgb(34,59,151)" stroke="rgb(34,59,151)" stroke-width="1.51"/><path d="M364,402L398,362L341,341Z" fill="rgb(33,58,148)" stroke="rgb(33,58,148)" stroke-width="1.51"/><path d="M264,436L364,402L341,341Z" fill="rgb(33,58,149)" stroke="rgb(33,58,149)" stroke-width="1.51"/><path d="M199,293L171,337L238,330Z" fill="rgb(36,64,166)" stroke="rgb(36,64,166)" stroke-width="1.51"/><path d="M113,253L171,337L199,293Z" fill="rgb(37,66,173)" stroke="rgb(37,66,173)" stroke-width="1.51"/><path d="M113,253L199,293L177,215Z" fill="rgb(38,68,177)" stroke="rgb(38,68,177)" stroke-width="1.51"/><path d="M250,33L244,121L357,76Z" fill="rgb(39,72,188)" stroke="rgb(39,72,188)" stroke-width="1.51"/><path d="M250,33L194,66L244,121Z" fill="rgb(40,74,193)" stroke="rgb(40,74,193)" stroke-width="1.51"/><path d="M433,274L472,271L459,205Z" fill="rgb(34,61,155)" stroke="rgb(34,61,155)" stroke-width="1.51"/><path d="M501,368L472,271L433,274Z" fill="rgb(33,58,148)" stroke="rgb(33,58,148)" stroke-width="1.51"/><path d="M356,-17L250,33L357,76Z" fill="rgb(40,73,191)" stroke="rgb(40,73,191)" stroke-width="1.51"/><path d="M102,198L113,253L177,215Z" fill="rgb(39,70,184)" stroke="rgb(39,70,184)" stroke-width="1.51"/><path d="M161,110L129,119L177,215Z" fill="rgb(40,72,190)" stroke="rgb(40,72,190)" stroke-width="1.51"/><path d="M110,49L129,119L161,110Z" fill="rgb(41,76,198)" stroke="rgb(41,76,198)" stroke-width="1.51"/><path d="M129,119L102,198L177,215Z" fill="rgb(40,72,188)" stroke="rgb(40,72,188)" stroke-width="1.51"/><path d="M264,436L341,341L238,330Z" fill="rgb(34,60,155)" stroke="rgb(34,60,155)" stroke-width="1.51"/><path d="M459,205L478,116L439,196Z" fill="rgb(36,63,163)" stroke="rgb(36,63,163)" stroke-width="1.51"/><path d="M539,224L478,116L459,205Z" fill="rgb(35,62,160)" stroke="rgb(35,62,160)" stroke-width="1.51"/><path d="M171,337L264,436L238,330Z" fill="rgb(35,62,159)" stroke="rgb(35,62,159)" stroke-width="1.51"/><path d="M390,73L356,-17L357,76Z" fill="rgb(39,71,186)" stroke="rgb(39,71,186)" stroke-width="1.51"/><path d="M431,-8L356,-17L390,73Z" fill="rgb(39,72,187)" stroke="rgb(39,72,187)" stroke-width="1.51"/><path d="M472,271L539,224L459,205Z" fill="rgb(34,60,154)" stroke="rgb(34,60,154)" stroke-width="1.51"/><path d="M559,249L539,224L472,271Z" fill="rgb(33,59,150)" stroke="rgb(33,59,150)" stroke-width="1.51"/><path d="M501,368L433,274L398,362Z" fill="rgb(33,57,146)" stroke="rgb(33,57,146)" stroke-width="1.51"/><path d="M171,337L165,447L264,436Z" fill="rgb(34,61,157)" stroke="rgb(34,61,157)" stroke-width="1.51"/><path d="M113,253L98,341L171,337Z" fill="rgb(37,67,173)" stroke="rgb(37,67,173)" stroke-width="1.51"/><path d="M63,260L98,341L113,253Z" fill="rgb(38,69,179)" stroke="rgb(38,69,179)" stroke-width="1.51"/><path d="M478,116L489,60L390,73Z" fill="rgb(37,67,175)" stroke="rgb(37,67,175)" stroke-width="1.51"/><path d="M575,102L489,60L478,116Z" fill="rgb(36,65,169)" stroke="rgb(36,65,169)" stroke-width="1.51"/><path d="M102,198L63,260L113,253Z" fill="rgb(39,71,185)" stroke="rgb(39,71,185)" stroke-width="1.51"/><path d="M31,224L63,260L102,198Z" fill="rgb(40,72,188)" stroke="rgb(40,72,188)" stroke-width="1.51"/><path d="M194,66L110,49L161,110Z" fill="rgb(41,76,199)" stroke="rgb(41,76,199)" stroke-width="1.51"/><path d="M129,119L45,129L102,198Z" fill="rgb(41,74,195)" stroke="rgb(41,74,195)" stroke-width="1.51"/><path d="M112,-10L110,49L194,66Z" fill="rgb(42,77,205)" stroke="rgb(42,77,205)" stroke-width="1.51"/><path d="M175,-40L194,66L250,33Z" fill="rgb(41,76,202)" stroke="rgb(41,76,202)" stroke-width="1.51"/><path d="M98,341L135,401L171,337Z" fill="rgb(36,65,167)" stroke="rgb(36,65,167)" stroke-width="1.51"/><path d="M356,-17L271,-40L250,33Z" fill="rgb(41,75,197)" stroke="rgb(41,75,197)" stroke-width="1.51"/><path d="M438,452L501,368L398,362Z" fill="rgb(31,55,139)" stroke="rgb(31,55,139)" stroke-width="1.51"/><path d="M438,452L398,362L364,402Z" fill="rgb(32,56,142)" stroke="rgb(32,56,142)" stroke-width="1.51"/><path d="M356,-17L275,-91L271,-40Z" fill="rgb(41,75,197)" stroke="rgb(41,75,197)" stroke-width="1.51"/><path d="M489,60L431,-8L390,73Z" fill="rgb(38,69,181)" stroke="rgb(38,69,181)" stroke-width="1.51"/><path d="M539,224L575,102L478,116Z" fill="rgb(35,63,161)" stroke="rgb(35,63,161)" stroke-width="1.51"/><path d="M557,335L559,249L472,271Z" fill="rgb(33,57,145)" stroke="rgb(33,57,145)" stroke-width="1.51"/><path d="M110,49L45,129L129,119Z" fill="rgb(42,76,201)" stroke="rgb(42,76,201)" stroke-width="1.51"/><path d="M63,260L23,329L98,341Z" fill="rgb(38,69,178)" stroke="rgb(38,69,178)" stroke-width="1.51"/><path d="M45,129L31,224L102,198Z" fill="rgb(41,74,194)" stroke="rgb(41,74,194)" stroke-width="1.51"/><path d="M135,401L165,447L171,337Z" fill="rgb(35,62,161)" stroke="rgb(35,62,161)" stroke-width="1.51"/><path d="M338,501L438,452L364,402Z" fill="rgb(32,56,143)" stroke="rgb(32,56,143)" stroke-width="1.51"/><path d="M338,501L364,402L264,436Z" fill="rgb(33,58,148)" stroke="rgb(33,58,148)" stroke-width="1.51"/><path d="M110,49L60,23L45,129Z" fill="rgb(42,78,207)" stroke="rgb(42,78,207)" stroke-width="1.51"/><path d="M271,-40L175,-40L250,33Z" fill="rgb(42,76,202)" stroke="rgb(42,76,202)" stroke-width="1.51"/><path d="M165,447L185,472L264,436Z" fill="rgb(34,61,157)" stroke="rgb(34,61,157)" stroke-width="1.51"/><path d="M501,368L557,335L472,271Z" fill="rgb(32,57,142)" stroke="rgb(32,57,142)" stroke-width="1.51"/><path d="M616,368L557,335L585,451Z" fill="rgb(30,52,129)" stroke="rgb(30,52,129)" stroke-width="1.51"/><path d="M175,-40L112,-10L194,66Z" fill="rgb(42,78,207)" stroke="rgb(42,78,207)" stroke-width="1.51"/><path d="M251,511L338,501L264,436Z" fill="rgb(33,59,151)" stroke="rgb(33,59,151)" stroke-width="1.51"/><path d="M489,60L509,-3L431,-8Z" fill="rgb(38,69,181)" stroke="rgb(38,69,181)" stroke-width="1.51"/><path d="M622,190L575,102L539,224Z" fill="rgb(34,60,154)" stroke="rgb(34,60,154)" stroke-width="1.51"/><path d="M622,190L539,224L559,249Z" fill="rgb(33,58,149)" stroke="rgb(33,58,149)" stroke-width="1.51"/><path d="M571,59L509,-3L489,60Z" fill="rgb(37,67,175)" stroke="rgb(37,67,175)" stroke-width="1.51"/><path d="M358,-110L275,-91L356,-17Z" fill="rgb(40,74,194)" stroke="rgb(40,74,194)" stroke-width="1.51"/><path d="M470,484L500,436L438,452Z" fill="rgb(31,54,137)" stroke="rgb(31,54,137)" stroke-width="1.51"/><path d="M438,452L500,436L501,368Z" fill="rgb(31,54,136)" stroke="rgb(31,54,136)" stroke-width="1.51"/><path d="M-34,282L23,329L63,260Z" fill="rgb(39,71,184)" stroke="rgb(39,71,184)" stroke-width="1.51"/><path d="M98,341L30,450L135,401Z" fill="rgb(36,64,167)" stroke="rgb(36,64,167)" stroke-width="1.51"/><path d="M135,401L100,502L165,447Z" fill="rgb(35,63,162)" stroke="rgb(35,63,162)" stroke-width="1.51"/><path d="M165,447L100,502L185,472Z" fill="rgb(35,63,161)" stroke="rgb(35,63,161)" stroke-width="1.51"/><path d="M185,472L251,511L264,436Z" fill="rgb(34,60,155)" stroke="rgb(34,60,155)" stroke-width="1.51"/><path d="M271,-40L200,-110L175,-40Z" fill="rgb(42,77,203)" stroke="rgb(42,77,203)" stroke-width="1.51"/><path d="M175,-40L111,-89L112,-10Z" fill="rgb(43,79,210)" stroke="rgb(43,79,210)" stroke-width="1.51"/><path d="M427,-84L356,-17L431,-8Z" fill="rgb(39,72,188)" stroke="rgb(39,72,188)" stroke-width="1.51"/><path d="M112,-10L60,23L110,49Z" fill="rgb(43,79,211)" stroke="rgb(43,79,211)" stroke-width="1.51"/><path d="M45,129L-13,180L31,224Z" fill="rgb(41,75,198)" stroke="rgb(41,75,198)" stroke-width="1.51"/><path d="M575,102L571,59L489,60Z" fill="rgb(36,65,168)" stroke="rgb(36,65,168)" stroke-width="1.51"/><path d="M-31,124L-13,180L45,129Z" fill="rgb(42,77,203)" stroke="rgb(42,77,203)" stroke-width="1.51"/><path d="M31,224L-34,282L63,260Z" fill="rgb(40,72,189)" stroke="rgb(40,72,189)" stroke-width="1.51"/><path d="M427,508L470,484L438,452Z" fill="rgb(31,55,138)" stroke="rgb(31,55,138)" stroke-width="1.51"/><path d="M509,-3L427,-84L431,-8Z" fill="rgb(39,70,184)" stroke="rgb(39,70,184)" stroke-width="1.51"/><path d="M338,501L427,508L438,452Z" fill="rgb(32,56,142)" stroke="rgb(32,56,142)" stroke-width="1.51"/><path d="M251,511L427,508L338,501Z" fill="rgb(33,58,147)" stroke="rgb(33,58,147)" stroke-width="1.51"/><path d="M653,246L622,190L559,249Z" fill="rgb(33,57,146)" stroke="rgb(33,57,146)" stroke-width="1.51"/><path d="M575,102L634,71L571,59Z" fill="rgb(35,64,164)" stroke="rgb(35,64,164)" stroke-width="1.51"/><path d="M427,-84L358,-110L356,-17Z" fill="rgb(40,72,190)" stroke="rgb(40,72,190)" stroke-width="1.51"/><path d="M275,-91L200,-110L271,-40Z" fill="rgb(41,76,201)" stroke="rgb(41,76,201)" stroke-width="1.51"/><path d="M112,-10L23,-46L60,23Z" fill="rgb(44,81,215)" stroke="rgb(44,81,215)" stroke-width="1.51"/><path d="M358,-110L200,-110L275,-91Z" fill="rgb(41,75,198)" stroke="rgb(41,75,198)" stroke-width="1.51"/><path d="M-13,180L-34,282L31,224Z" fill="rgb(40,73,193)" stroke="rgb(40,73,193)" stroke-width="1.51"/><path d="M30,450L100,502L135,401Z" fill="rgb(36,64,166)" stroke="rgb(36,64,166)" stroke-width="1.51"/><path d="M-96,224L-92,249L-34,282Z" fill="rgb(40,73,191)" stroke="rgb(40,73,191)" stroke-width="1.51"/><path d="M60,23L-31,124L45,129Z" fill="rgb(42,78,208)" stroke="rgb(42,78,208)" stroke-width="1.51"/><path d="M509,-3L499,-103L427,-84Z" fill="rgb(38,70,182)" stroke="rgb(38,70,182)" stroke-width="1.51"/><path d="M571,59L573,-41L509,-3Z" fill="rgb(37,68,176)" stroke="rgb(37,68,176)" stroke-width="1.51"/><path d="M622,190L628,101L575,102Z" fill="rgb(34,61,157)" stroke="rgb(34,61,157)" stroke-width="1.51"/><path d="M557,335L653,246L559,249Z" fill="rgb(32,56,142)" stroke="rgb(32,56,142)" stroke-width="1.51"/><path d="M622,190L715,189L628,101Z" fill="rgb(34,60,154)" stroke="rgb(34,60,154)" stroke-width="1.51"/><path d="M585,451L557,335L501,368Z" fill="rgb(30,53,132)" stroke="rgb(30,53,132)" stroke-width="1.51"/><path d="M585,451L501,368L500,436Z" fill="rgb(30,53,132)" stroke="rgb(30,53,132)" stroke-width="1.51"/><path d="M185,472L100,502L251,511Z" fill="rgb(35,62,159)" stroke="rgb(35,62,159)" stroke-width="1.51"/><path d="M30,450L98,341L23,329Z" fill="rgb(37,66,172)" stroke="rgb(37,66,172)" stroke-width="1.51"/><path d="M616,368L653,246L557,335Z" fill="rgb(31,54,136)" stroke="rgb(31,54,136)" stroke-width="1.51"/><path d="M60,23L-66,49L-31,124Z" fill="rgb(43,80,213)" stroke="rgb(43,80,213)" stroke-width="1.51"/><path d="M200,-110L111,-89L175,-40Z" fill="rgb(42,78,208)" stroke="rgb(42,78,208)" stroke-width="1.51"/><path d="M-42,373L30,450L23,329Z" fill="rgb(37,67,174)" stroke="rgb(37,67,174)" stroke-width="1.51"/><path d="M628,101L634,71L575,102Z" fill="rgb(35,63,162)" stroke="rgb(35,63,162)" stroke-width="1.51"/><path d="M702,67L634,71L628,101Z" fill="rgb(35,63,164)" stroke="rgb(35,63,164)" stroke-width="1.51"/><path d="M556,504L500,436L470,484Z" fill="rgb(30,53,134)" stroke="rgb(30,53,134)" stroke-width="1.51"/><path d="M556,504L585,451L500,436Z" fill="rgb(30,52,131)" stroke="rgb(30,52,131)" stroke-width="1.51"/><path d="M616,-15L573,-41L571,59Z" fill="rgb(37,67,174)" stroke="rgb(37,67,174)" stroke-width="1.51"/><path d="M427,-84L499,-103L358,-110Z" fill="rgb(39,71,186)" stroke="rgb(39,71,186)" stroke-width="1.51"/><path d="M573,-41L499,-103L509,-3Z" fill="rgb(38,69,179)" stroke="rgb(38,69,179)" stroke-width="1.51"/><path d="M-34,282L-42,373L23,329Z" fill="rgb(38,70,181)" stroke="rgb(38,70,181)" stroke-width="1.51"/><path d="M-88,330L-42,373L-34,282Z" fill="rgb(38,70,181)" stroke="rgb(38,70,181)" stroke-width="1.51"/><path d="M111,-89L23,-46L112,-10Z" fill="rgb(43,80,214)" stroke="rgb(43,80,214)" stroke-width="1.51"/><path d="M427,508L556,504L470,484Z" fill="rgb(31,54,135)" stroke="rgb(31,54,135)" stroke-width="1.51"/><path d="M573,-41L549,-109L499,-103Z" fill="rgb(38,68,178)" stroke="rgb(38,68,178)" stroke-width="1.51"/><path d="M634,71L616,-15L571,59Z" fill="rgb(36,65,169)" stroke="rgb(36,65,169)" stroke-width="1.51"/><path d="M649,481L641,409L585,451Z" fill="rgb(29,51,127)" stroke="rgb(29,51,127)" stroke-width="1.51"/><path d="M585,451L641,409L616,368Z" fill="rgb(29,51,127)" stroke="rgb(29,51,127)" stroke-width="1.51"/><path d="M616,368L706,280L653,246Z" fill="rgb(31,55,138)" stroke="rgb(31,55,138)" stroke-width="1.51"/><path d="M30,450L27,495L100,502Z" fill="rgb(36,65,169)" stroke="rgb(36,65,169)" stroke-width="1.51"/><path d="M-66,479L27,495L30,450Z" fill="rgb(37,67,173)" stroke="rgb(37,67,173)" stroke-width="1.51"/><path d="M-96,224L-13,180L-31,124Z" fill="rgb(41,76,199)" stroke="rgb(41,76,199)" stroke-width="1.51"/><path d="M-96,224L-34,282L-13,180Z" fill="rgb(40,73,193)" stroke="rgb(40,73,193)" stroke-width="1.51"/><path d="M-128,100L-96,224L-31,124Z" fill="rgb(42,77,203)" stroke="rgb(42,77,203)" stroke-width="1.51"/><path d="M-28,-21L-66,49L60,23Z" fill="rgb(44,83,219)" stroke="rgb(44,83,219)" stroke-width="1.51"/><path d="M23,-46L-28,-21L60,23Z" fill="rgb(44,82,219)" stroke="rgb(44,82,219)" stroke-width="1.51"/><path d="M111,-89L41,-96L23,-46Z" fill="rgb(44,81,216)" stroke="rgb(44,81,216)" stroke-width="1.51"/><path d="M200,-110L41,-96L111,-89Z" fill="rgb(43,80,211)" stroke="rgb(43,80,211)" stroke-width="1.51"/><path d="M-26,-74L-28,-21L23,-46Z" fill="rgb(44,83,221)" stroke="rgb(44,83,221)" stroke-width="1.51"/><path d="M499,-103L549,-109L358,-110Z" fill="rgb(39,70,183)" stroke="rgb(39,70,183)" stroke-width="1.51"/><path d="M612,-107L549,-109L573,-41Z" fill="rgb(37,67,174)" stroke="rgb(37,67,174)" stroke-width="1.51"/><path d="M-96,398L-88,330L-92,249Z" fill="rgb(38,70,182)" stroke="rgb(38,70,182)" stroke-width="1.51"/><path d="M-92,249L-88,330L-34,282Z" fill="rgb(39,71,186)" stroke="rgb(39,71,186)" stroke-width="1.51"/><path d="M-42,373L-63,412L30,450Z" fill="rgb(37,67,173)" stroke="rgb(37,67,173)" stroke-width="1.51"/><path d="M653,246L715,189L622,190Z" fill="rgb(33,58,149)" stroke="rgb(33,58,149)" stroke-width="1.51"/><path d="M634,71L711,2L616,-15Z" fill="rgb(36,66,170)" stroke="rgb(36,66,170)" stroke-width="1.51"/><path d="M730,366L706,280L616,368Z" fill="rgb(31,53,134)" stroke="rgb(31,53,134)" stroke-width="1.51"/><path d="M-66,49L-86,65L-31,124Z" fill="rgb(43,79,211)" stroke="rgb(43,79,211)" stroke-width="1.51"/><path d="M-118,-8L-86,65L-66,49Z" fill="rgb(44,81,216)" stroke="rgb(44,81,216)" stroke-width="1.51"/><path d="M-96,398L-63,412L-42,373Z" fill="rgb(37,67,173)" stroke="rgb(37,67,173)" stroke-width="1.51"/><path d="M706,280L715,189L653,246Z" fill="rgb(32,57,145)" stroke="rgb(32,57,145)" stroke-width="1.51"/><path d="M616,-15L612,-107L573,-41Z" fill="rgb(37,67,173)" stroke="rgb(37,67,173)" stroke-width="1.51"/><path d="M729,107L702,67L628,101Z" fill="rgb(35,63,162)" stroke="rgb(35,63,162)" stroke-width="1.51"/><path d="M-28,-21L-118,-8L-66,49Z" fill="rgb(44,82,220)" stroke="rgb(44,82,220)" stroke-width="1.51"/><path d="M41,-96L-26,-74L23,-46Z" fill="rgb(44,82,220)" stroke="rgb(44,82,220)" stroke-width="1.51"/><path d="M-88,330L-96,398L-42,373Z" fill="rgb(37,68,177)" stroke="rgb(37,68,177)" stroke-width="1.51"/><path d="M-63,412L-66,479L30,450Z" fill="rgb(37,67,173)" stroke="rgb(37,67,173)" stroke-width="1.51"/><path d="M-96,224L-96,398L-92,249Z" fill="rgb(39,71,186)" stroke="rgb(39,71,186)" stroke-width="1.51"/><path d="M641,409L730,366L616,368Z" fill="rgb(30,52,129)" stroke="rgb(30,52,129)" stroke-width="1.51"/><path d="M556,504L649,481L585,451Z" fill="rgb(29,51,127)" stroke="rgb(29,51,127)" stroke-width="1.51"/><path d="M730,366L729,107L715,189Z" fill="rgb(33,58,147)" stroke="rgb(33,58,147)" stroke-width="1.51"/><path d="M715,189L729,107L628,101Z" fill="rgb(34,61,157)" stroke="rgb(34,61,157)" stroke-width="1.51"/><path d="M-86,65L-128,100L-31,124Z" fill="rgb(43,79,209)" stroke="rgb(43,79,209)" stroke-width="1.51"/><path d="M-96,224L-128,100L-96,398Z" fill="rgb(40,73,192)" stroke="rgb(40,73,192)" stroke-width="1.51"/><path d="M-118,-8L-128,100L-86,65Z" fill="rgb(43,81,214)" stroke="rgb(43,81,214)" stroke-width="1.51"/><path d="M711,2L634,71L702,67Z" fill="rgb(36,65,168)" stroke="rgb(36,65,168)" stroke-width="1.51"/><path d="M723,-96L612,-107L616,-15Z" fill="rgb(37,67,173)" stroke="rgb(37,67,173)" stroke-width="1.51"/><path d="M-100,481L-66,479L-63,412Z" fill="rgb(37,67,173)" stroke="rgb(37,67,173)" stroke-width="1.51"/><path d="M733,425L730,366L641,409Z" fill="rgb(29,51,127)" stroke="rgb(29,51,127)" stroke-width="1.51"/><path d="M706,280L730,366L715,189Z" fill="rgb(32,55,141)" stroke="rgb(32,55,141)" stroke-width="1.51"/><path d="M729,107L711,2L702,67Z" fill="rgb(36,64,166)" stroke="rgb(36,64,166)" stroke-width="1.51"/><path d="M-26,-74L-118,-8L-28,-21Z" fill="rgb(44,83,221)" stroke="rgb(44,83,221)" stroke-width="1.51"/><path d="M649,481L733,425L641,409Z" fill="rgb(29,51,127)" stroke="rgb(29,51,127)" stroke-width="1.51"/><path d="M730,366L733,425L729,107Z" fill="rgb(31,55,138)" stroke="rgb(31,55,138)" stroke-width="1.51"/><path d="M-66,479L-100,481L27,495Z" fill="rgb(37,67,173)" stroke="rgb(37,67,173)" stroke-width="1.51"/><path d="M-96,398L-100,481L-63,412Z" fill="rgb(37,67,173)" stroke="rgb(37,67,173)" stroke-width="1.51"/><path d="M-128,100L-100,481L-96,398Z" fill="rgb(38,70,182)" stroke="rgb(38,70,182)" stroke-width="1.51"/><path d="M649,481L698,498L733,425Z" fill="rgb(29,51,127)" stroke="rgb(29,51,127)" stroke-width="1.51"/><path d="M556,504L698,498L649,481Z" fill="rgb(29,51,127)" stroke="rgb(29,51,127)" stroke-width="1.51"/><path d="M729,107L723,-96L711,2Z" fill="rgb(37,67,172)" stroke="rgb(37,67,172)" stroke-width="1.51"/><path d="M711,2L723,-96L616,-15Z" fill="rgb(37,67,173)" stroke="rgb(37,67,173)" stroke-width="1.51"/><path d="M-26,-74L-132,-87L-118,-8Z" fill="rgb(44,83,221)" stroke="rgb(44,83,221)" stroke-width="1.51"/><path d="M-118,-8L-132,-87L-128,100Z" fill="rgb(44,83,221)" stroke="rgb(44,83,221)" stroke-width="1.51"/><path d="M41,-96L-132,-87L-26,-74Z" fill="rgb(44,83,221)" stroke="rgb(44,83,221)" stroke-width="1.51"/><path d="M200,-110L-132,-87L41,-96Z" fill="rgb(44,82,218)" stroke="rgb(44,82,218)" stroke-width="1.51"/></svg>